<?xml version="1.0" encoding="utf-8"?>
<!-- Generator: Adobe Illustrator 28.3.0, SVG Export Plug-In . SVG Version: 6.00 Build 0)  -->
<svg version="1.1" xmlns="http://www.w3.org/2000/svg" xmlns:xlink="http://www.w3.org/1999/xlink" x="0px" y="0px"
	 viewBox="0 0 595.3 841.9" style="enable-background:new 0 0 595.3 841.9;" xml:space="preserve">
<style type="text/css">
	.st0{fill:#BE1E2D;stroke:#000000;stroke-width:0.6579;stroke-miterlimit:10;}
	.st1{fill:#FFFFFF;stroke:#000000;stroke-width:0.1645;stroke-miterlimit:10;}
	.st2{fill:none;stroke:#000000;stroke-width:0.6579;stroke-miterlimit:10;}
	.st3{fill:none;stroke:#000000;stroke-width:0.1645;stroke-miterlimit:10;}
	.st4{fill:none;stroke:#000000;stroke-width:0.4934;stroke-miterlimit:10;}
	.st5{font-family:'MyriadPro-Regular';}
	.st6{font-size:7.3312px;}
	.st7{fill:#2E3192;stroke:#000000;stroke-width:0.6579;stroke-miterlimit:10;}
	.st8{fill:#F9ED32;stroke:#000000;stroke-width:0.6579;stroke-miterlimit:10;}
	.st9{fill:none;}
	.st10{fill:#F9ED32;stroke:#000000;stroke-width:0.9046;stroke-miterlimit:10;}
	.st11{fill:none;stroke:#000000;stroke-width:0.9046;stroke-miterlimit:10;}
	.st12{fill:#FFFFFF;}
	.st13{fill:none;stroke:#000000;stroke-width:0.4431;stroke-miterlimit:10;}
	.st14{fill:#FFFFFF;stroke:#000000;stroke-width:0.6579;stroke-miterlimit:10;}
	.st15{font-size:6.1093px;}
	.st16{font-size:5.6672px;}
	.st17{fill:none;stroke:#000000;stroke-width:0.7828;stroke-miterlimit:10;}
	.st18{fill:none;stroke:#000000;stroke-width:0.7193;stroke-miterlimit:10;}
	.st19{fill:none;stroke:#000000;stroke-width:0.646;stroke-miterlimit:10;}
	.st20{fill:#FFF200;}
	.st21{font-size:3.6656px;}
	.st22{fill:#ED1C24;}
	.st23{fill:#00A651;}
	.st24{fill:#2B3990;}
	.st25{font-size:5px;}
	.st26{font-size:12px;}
	.st27{font-size:6px;}
	.st28{stroke:#000000;stroke-width:0.75;stroke-miterlimit:10;}
	.st29{font-size:5.532px;}
	.st30{fill:none;stroke:#000000;stroke-miterlimit:10;}
</style>
<g id="Convolution">
	<g>
		<ellipse class="st0" cx="109.4" cy="61.8" rx="3.2" ry="2.7"/>
		<path class="st0" d="M112.6,74.7c0,1.5-1.4,2.7-3.2,2.7c-1.8,0-3.2-1.2-3.2-2.7c0-1.5,1.8-2.7,3.5-2.7S112.6,73.2,112.6,74.7z"/>
		<ellipse class="st0" cx="109.4" cy="89.9" rx="3.2" ry="2.7"/>
		<path class="st0" d="M112.6,121.1c0,1.5-1.1,2.7-2.8,2.7s-3.5-1.2-3.5-2.7s1.4-2.7,3.2-2.7C111.2,118.4,112.6,119.6,112.6,121.1z"
			/>
	</g>
	<g>
		<ellipse class="st0" cx="140.6" cy="82.6" rx="3.2" ry="2.7"/>
		<ellipse class="st0" cx="140.6" cy="115" rx="3.2" ry="2.7"/>
	</g>
	<g>
		<ellipse class="st0" cx="78.3" cy="53.3" rx="3.2" ry="2.7"/>
		<ellipse class="st0" cx="78.3" cy="67.3" rx="3.2" ry="2.7"/>
		<ellipse class="st0" cx="78.3" cy="81.4" rx="3.2" ry="2.7"/>
		<ellipse class="st0" cx="78.3" cy="95.4" rx="3.2" ry="2.7"/>
		<ellipse class="st0" cx="78.3" cy="127.8" rx="3.2" ry="2.7"/>
		<ellipse class="st0" cx="78.3" cy="141.9" rx="3.2" ry="2.7"/>
	</g>
	<polygon class="st1" points="82.2,67.6 105.5,60.9 82.9,54.8 105.5,75 	"/>
	<polygon class="st2" points="81.9,68.2 104.8,87.2 82.2,54.8 106.2,121.4 	"/>
	<polygon class="st3" points="82.2,95.8 106.2,60.9 82.2,81.7 105.5,75.6 	"/>
	<polyline class="st3" points="106.6,89 81.4,95.8 106.2,88.7 80.7,126.3 	"/>
	<polygon class="st4" points="80,139.7 106.2,60.6 80.7,126.3 106.3,75.2 	"/>
	<line class="st2" x1="80.7" y1="126.3" x2="106.2" y2="121.4"/>
	<polygon class="st2" points="113.3,62.8 137.4,82.9 113.3,62.8 137.4,113.5 	"/>
	<polygon class="st2" points="137.4,113.5 112.6,89.9 137.4,82.9 113.3,75.6 113.3,75.6 	"/>
	<path class="st2" d="M113.3,75.6L113.3,75.6L113.3,75.6z"/>
	<path class="st2" d="M113.3,75.6L113.3,75.6L113.3,75.6z"/>
	<line class="st2" x1="113.3" y1="75.6" x2="113.3" y2="75.6"/>
	<polyline class="st2" points="137.4,82.9 112.6,121.1 137.4,115 	"/>
	<text transform="matrix(1.1595 0 0 1 76.666 103.8662)"><tspan x="0" y="0" class="st5 st6">.</tspan><tspan x="0" y="8.8" class="st5 st6">.</tspan><tspan x="0" y="17.6" class="st5 st6">.</tspan></text>
	<text transform="matrix(1.1595 0 0 1 109.9985 97.1025)"><tspan x="0" y="0" class="st5 st6">.</tspan><tspan x="0" y="8.8" class="st5 st6">.</tspan><tspan x="0" y="17.6" class="st5 st6">.</tspan></text>
	<text transform="matrix(1.1595 0 0 1 146.708 82.3545)" class="st5 st6">. . .</text>
	<text transform="matrix(1.1595 0 0 1 146.9756 114.9492)" class="st5 st6">. . .</text>
	<polyline class="st2" points="80.7,138.5 106.2,121.4 80.7,138.5 106.2,88.7 	"/>
	<g>
		<ellipse class="st7" cx="192.3" cy="61.8" rx="3.2" ry="2.7"/>
		<path class="st7" d="M189.1,74.7c0,1.5,1.4,2.7,3.2,2.7c1.8,0,3.2-1.2,3.2-2.7c0-1.5-1.8-2.7-3.5-2.7S189.1,73.2,189.1,74.7z"/>
		<ellipse class="st7" cx="192.3" cy="89.9" rx="3.2" ry="2.7"/>
		<path class="st7" d="M189.1,121.1c0,1.5,1.1,2.7,2.8,2.7s3.5-1.2,3.5-2.7s-1.4-2.7-3.2-2.7C190.5,118.4,189.1,119.6,189.1,121.1z"
			/>
	</g>
	<g>
		<ellipse class="st7" cx="161.1" cy="82.6" rx="3.2" ry="2.7"/>
		<ellipse class="st7" cx="161.1" cy="115" rx="3.2" ry="2.7"/>
	</g>
	<g>
		<ellipse class="st7" cx="223.5" cy="53.3" rx="3.2" ry="2.7"/>
		<ellipse class="st7" cx="223.5" cy="67.3" rx="3.2" ry="2.7"/>
		<ellipse class="st7" cx="223.5" cy="81.4" rx="3.2" ry="2.7"/>
		<ellipse class="st7" cx="223.5" cy="95.4" rx="3.2" ry="2.7"/>
		<ellipse class="st7" cx="223.5" cy="127.8" rx="3.2" ry="2.7"/>
		<ellipse class="st7" cx="223.5" cy="141.9" rx="3.2" ry="2.7"/>
	</g>
	<polygon class="st1" points="219.9,68 195.8,60.6 219.9,54.5 195.8,75.3 	"/>
	<polygon class="st2" points="219.8,68.2 196.9,87.2 219.6,54.8 195.5,121.4 	"/>
	<polygon class="st3" points="219.6,95.8 195.5,60.9 220.6,82 195.8,75.3 	"/>
	<polyline class="st3" points="195.8,88.7 219.9,96.1 195.5,88.7 221,126.3 	"/>
	<polygon class="st4" points="221.7,139.7 195.5,60.6 221,126.3 195.4,75.2 	"/>
	<line class="st2" x1="221" y1="126.3" x2="195.5" y2="121.4"/>
	<polygon class="st2" points="188.4,62.8 164.3,82.9 188.1,63.4 164,114.1 	"/>
	<polygon class="st2" points="165.7,112.2 189.1,89.9 165,82.9 188.4,75.6 188.4,75.6 	"/>
	<path class="st2" d="M188.4,75.6L188.4,75.6L188.4,75.6z"/>
	<path class="st2" d="M188.4,75.6L188.4,75.6L188.4,75.6z"/>
	<line class="st2" x1="188.4" y1="75.6" x2="188.4" y2="75.6"/>
	<polyline class="st2" points="164.3,82.9 188.4,121.4 164.3,115 	"/>
	<text transform="matrix(-1.1595 0 0 1 225.0645 103.8662)"><tspan x="0" y="0" class="st5 st6">.</tspan><tspan x="0" y="8.8" class="st5 st6">.</tspan><tspan x="0" y="17.6" class="st5 st6">.</tspan></text>
	<text transform="matrix(-1.1595 0 0 1 191.7324 97.1025)"><tspan x="0" y="0" class="st5 st6">.</tspan><tspan x="0" y="8.8" class="st5 st6">.</tspan><tspan x="0" y="17.6" class="st5 st6">.</tspan></text>
	<polyline class="st2" points="221,138.5 195.5,121.4 221,138.5 195.5,88.7 	"/>
	<g>
		<ellipse class="st8" cx="197.3" cy="152.9" rx="3.2" ry="2.7"/>
		<path class="st8" d="M194.1,165.7c0,1.5,1.4,2.7,3.2,2.7s3.2-1.2,3.2-2.7c0-1.5-1.8-2.7-3.5-2.7
			C195.1,163,194.1,164.2,194.1,165.7z"/>
		<ellipse class="st8" cx="197.3" cy="181" rx="3.2" ry="2.7"/>
		<path class="st8" d="M194.1,212.1c0,1.5,1.1,2.7,2.8,2.7c1.8,0,3.5-1.2,3.5-2.7s-1.4-2.7-3.2-2.7S194.1,210.6,194.1,212.1z"/>
	</g>
	<text transform="matrix(-1.1595 0 0 1 197.666 189.1948)"><tspan x="0" y="0" class="st9 st5 st6">.</tspan><tspan x="0" y="8.8" class="st9 st5 st6">.</tspan><tspan x="0" y="17.6" class="st9 st5 st6">.</tspan></text>
	<text transform="matrix(1.1595 0 0 1 140.873 90.2236)"><tspan x="0" y="0" class="st5 st6">.</tspan><tspan x="0" y="8.8" class="st5 st6">.</tspan><tspan x="0" y="17.6" class="st5 st6">.</tspan></text>
	<text transform="matrix(1.1595 0 0 1 158.5825 90.8345)"><tspan x="0" y="0" class="st5 st6">.</tspan><tspan x="0" y="8.8" class="st5 st6">.</tspan><tspan x="0" y="17.6" class="st5 st6">.</tspan></text>
	<g>
		<ellipse class="st8" cx="178.8" cy="165.1" rx="3.2" ry="2.7"/>
		<ellipse class="st8" cx="178.8" cy="197.5" rx="3.2" ry="2.7"/>
	</g>
	<g>
		<ellipse class="st8" cx="217.1" cy="152.9" rx="3.2" ry="2.7"/>
		<path class="st8" d="M213.9,165.7c0,1.5,1.4,2.7,3.2,2.7c1.8,0,3.2-1.2,3.2-2.7c0-1.5-1.8-2.7-3.5-2.7S213.9,164.2,213.9,165.7z"
			/>
		<ellipse class="st8" cx="217.1" cy="181" rx="3.2" ry="2.7"/>
		<path class="st8" d="M213.9,212.1c0,1.5,1.1,2.7,2.8,2.7s3.5-1.2,3.5-2.7s-1.4-2.7-3.2-2.7C215.3,209.4,213.9,210.6,213.9,212.1z"
			/>
	</g>
	<text transform="matrix(-1.1595 0 0 1 218.209 190.4165)"><tspan x="0" y="0" class="st9 st5 st6">.</tspan><tspan x="0" y="8.8" class="st9 st5 st6">.</tspan><tspan x="0" y="17.6" class="st9 st5 st6">.</tspan></text>
	<polyline class="st2" points="182,197.5 194.1,181 182,165.1 194.1,212.1 182,197.5 	"/>
	<polyline class="st2" points="195.4,155.1 182,197.5 194.1,165.7 178.8,162.3 194.1,152.9 	"/>
	<path class="st2" d="M217.1,155.6"/>
	<path class="st2" d="M200.5,181"/>
	<path class="st2" d="M213.9,212.1"/>
	<path class="st2" d="M212.6,165.5"/>
	<path class="st2" d="M214.9,154.9"/>
	<path class="st2" d="M213.9,181"/>
	<path class="st2" d="M200.5,181"/>
	<path class="st2" d="M213.9,167.8"/>
	<path class="st2" d="M197.3,209.4"/>
	<path class="st2" d="M217.1,183.7"/>
	<path class="st2" d="M200.5,212.1"/>
	<path class="st2" d="M213.9,212.1"/>
	<ellipse class="st10" cx="232.7" cy="177.3" rx="3.9" ry="3.4"/>
	<polyline class="st11" points="220.3,152.9 228.8,177.3 220.3,165.7 	"/>
	<polyline class="st11" points="220.3,181 228.8,177.3 220.3,212.1 	"/>
	<text transform="matrix(1.1595 0 0 1 202.8057 152.8965)" class="st5 st6">. . .</text>
	<text transform="matrix(1.1595 0 0 1 203.5137 165.1147)" class="st5 st6">. . .</text>
	<text transform="matrix(1.1595 0 0 1 202.0977 180.999)" class="st5 st6">. . .</text>
	<text transform="matrix(1.1595 0 0 1 203.5137 212.1567)" class="st5 st6">. . .</text>
	<text transform="matrix(1.1595 0 0 1 216.9932 188.0859)"><tspan x="0" y="0" class="st5 st6">.</tspan><tspan x="0" y="8.8" class="st5 st6">.</tspan><tspan x="0" y="17.6" class="st5 st6">.</tspan></text>
	<text transform="matrix(1.1595 0 0 1 197.1582 187.4746)"><tspan x="0" y="0" class="st5 st6">.</tspan><tspan x="0" y="8.8" class="st5 st6">.</tspan><tspan x="0" y="17.6" class="st5 st6">.</tspan></text>
</g>
<g id="Arrows">
	<g>
		<polyline class="st12" points="151,118.2 151,179 161.1,179 		"/>
		<g>
			<polyline class="st13" points="151,118.2 151,179 158.5,179 			"/>
			<g>
				<path d="M161.1,179c-1.3,0.5-2.8,1.3-3.8,2.1l0.8-2.1l-0.8-2.1C158.3,177.7,159.9,178.5,161.1,179z"/>
			</g>
		</g>
	</g>
</g>
<g id="Feedforward">
	<line class="st14" x1="72.5" y1="160.9" x2="140.6" y2="160.9"/>
	<line class="st14" x1="85.2" y1="163.4" x2="85.2" y2="218.4"/>
	<text transform="matrix(1.1595 0 0 1 72.5508 158.6729)" class="st5 st15">n.t.</text>
	<text transform="matrix(0 -0.8559 1 0 75.123 207.0894)"><tspan x="0" y="0" class="st5 st16">Normalized One-Hot</tspan><tspan x="0" y="6.8" class="st5 st16">Encoding</tspan></text>
	<path d="M91.1,165.3"/>
	<text transform="matrix(1.1595 0 0 1 91.2764 158.3691)" class="st5 st6">A</text>
	<text transform="matrix(1.1595 0 0 1 105.7266 157.9004)" class="st5 st6">T</text>
	<g>
		<text transform="matrix(1.1595 0 0 1 119.4229 157.7837)" class="st5 st6">C</text>
	</g>
	<text transform="matrix(1.1595 0 0 1 132.1455 157.7837)" class="st5 st6">G</text>
	<path d="M93.8,163.3"/>
	<polyline class="st2" points="92.4,207.4 88.6,207.4 88.6,163.3 92.4,163.3 	"/>
	<polyline class="st2" points="95,207.4 98.8,207.4 98.8,163.3 95,163.3 	"/>
	<line class="st2" x1="57.4" y1="41.2" x2="116.2" y2="41.4"/>
	<line class="st2" x1="179.6" y1="41.6" x2="242.7" y2="41.6"/>
	<path class="st2" d="M242.7,242.2"/>
	<line class="st17" x1="176.7" y1="230.7" x2="240.6" y2="230.7"/>
	<text transform="matrix(1.1595 0 0 1 57.3984 39.1729)" class="st5 st6">Encoder</text>
	<text transform="matrix(1.1595 0 0 1 213.7891 39.1362)" class="st5 st6">Decoder</text>
	<text transform="matrix(1.1595 0 0 1 201.8818 227.2554)" class="st5 st6">Regression</text>
	<g>
		<g>
			<polyline class="st18" points="62.3,183.7 40.2,183.7 40.2,119.3 			"/>
			<g>
				<path d="M40.2,115c0.8,2,2.1,4.6,3.4,6.1l-3.4-1.2l-3.4,1.2C38.1,119.6,39.4,117,40.2,115z"/>
			</g>
		</g>
	</g>
	<rect x="10.5" y="84.5" class="st19" width="51" height="27"/>
	<text transform="matrix(1.1595 0 0 1 63.8018 228.7466)"><tspan x="0" y="0" class="st20 st5 st21">G</tspan><tspan x="2.4" y="0" class="st22 st5 st21">A</tspan><tspan x="4.6" y="0" class="st23 st5 st21">T</tspan><tspan x="6.4" y="0" class="st24 st5 st21">CC</tspan><tspan x="10.7" y="0" class="st23 st5 st21">T</tspan><tspan x="12.5" y="0" class="st24 st5 st21">C</tspan><tspan x="14.6" y="0" class="st20 st5 st21">GG</tspan><tspan x="19.4" y="0" class="st24 st5 st21">C</tspan><tspan x="21.5" y="0" class="st22 st5 st21">AAA</tspan><tspan x="28.2" y="0" class="st23 st5 st21">T</tspan><tspan x="30" y="0" class="st20 st5 st21">G</tspan><tspan x="32.4" y="0" class="st24 st5 st21">C</tspan><tspan x="34.5" y="0" class="st23 st5 st21">T</tspan><tspan x="36.4" y="0" class="st20 st5 st21">GG</tspan><tspan x="41.1" y="0" class="st22 st5 st21">AAA</tspan><tspan x="47.8" y="0" class="st23 st5 st21">T</tspan><tspan x="49.7" y="0" class="st22 st5 st21">A</tspan><tspan x="51.9" y="0" class="st20 st5 st21">G</tspan><tspan x="54.3" y="0" class="st24 st5 st21">CCC</tspan><tspan x="60.6" y="0" class="st23 st5 st21">T</tspan><tspan x="62.5" y="0" class="st20 st5 st21">G</tspan><tspan x="64.8" y="0" class="st24 st5 st21">C</tspan><tspan x="67" y="0" class="st22 st5 st21">A</tspan><tspan x="69.2" y="0" class="st22 st5 st21">A</tspan></text>
	<polyline class="st2" points="106.1,207.4 102.4,207.4 102.4,163.3 106.1,163.3 	"/>
	<polyline class="st2" points="108.8,207.4 112.5,207.4 112.5,163.3 108.8,163.3 	"/>
	<polyline class="st2" points="120.7,207.4 117,207.4 117,163.3 120.7,163.3 	"/>
	<polyline class="st2" points="123.4,207.4 127.1,207.4 127.1,163.3 123.4,163.3 	"/>
	<polyline class="st2" points="134.3,207.4 130.6,207.4 130.6,163.3 134.3,163.3 	"/>
	<polyline class="st2" points="137,207.4 140.7,207.4 140.7,163.3 137,163.3 	"/>
	<g>
		<g>
			<line class="st2" x1="64" y1="97.1" x2="67.1" y2="97.1"/>
			<g>
				<path d="M71.1,97.1c-1.9,0.7-4.2,1.9-5.6,3.1l1.1-3.1L65.5,94C66.9,95.2,69.2,96.4,71.1,97.1z"/>
			</g>
		</g>
	</g>
	<text transform="matrix(1 0 0 1 89.3218 170.04)" class="st5 st25">0.75</text>
	<text transform="matrix(1 0 0 1 89.6012 181.5233)" class="st5 st25">0.00</text>
	<text transform="matrix(1 0 0 1 21.6523 39.3843)" class="st5 st26">A.</text>
	<text transform="matrix(1 0 0 1 89.2446 192.3173)" class="st5 st25">0.00</text>
	<text transform="matrix(1 0 0 1 89.2446 203.3173)" class="st5 st25">0.00</text>
	<text transform="matrix(1 0 0 1 17.9756 92.3818)"><tspan x="0" y="0" class="st5 st27">Random</tspan><tspan x="0" y="7.2" class="st5 st27">Linear </tspan><tspan x="0" y="14.4" class="st5 st27">Transformation</tspan></text>
	<g>
		<g>
			<line class="st2" x1="112.6" y1="222.3" x2="112.6" y2="213.4"/>
			<g>
				<path d="M112.6,209.4c0.7,1.9,1.9,4.2,3.1,5.6l-3.1-1.1l-3.1,1.1C110.7,213.6,111.9,211.3,112.6,209.4z"/>
			</g>
		</g>
	</g>
	<text transform="matrix(1 0 0 1 45.3564 228.5947)" class="st5 st27">crRNA:</text>
	<line class="st28" x1="147.1" y1="230.7" x2="38.8" y2="230.7"/>
	<text transform="matrix(1 0 0 1 102.6437 170.0778)" class="st5 st25">0.00</text>
	<text transform="matrix(1 0 0 1 102.9231 181.5611)" class="st5 st25">0.50</text>
	<text transform="matrix(1 0 0 1 102.5665 192.355)" class="st5 st25">0.00</text>
	<text transform="matrix(1 0 0 1 102.5665 203.355)" class="st5 st25">0.00</text>
	<text transform="matrix(1 0 0 1 117.6438 170.0779)" class="st5 st25">0.00</text>
	<text transform="matrix(1 0 0 1 117.9232 181.5612)" class="st5 st25">0.00</text>
	<text transform="matrix(1 0 0 1 117.5666 192.3551)" class="st5 st25">0.25</text>
	<text transform="matrix(1 0 0 1 117.5666 203.3551)" class="st5 st25">0.00</text>
	<path id="SVGID_x5F_1_x5F_" class="st9" d="M300,45.2h9"/>
	<text class="st5 st29">	<textPath  xlink:href="#SVGID_x5F_1_x5F_" startOffset="58.594%">
L	</textPath>
</text>
	<g>
		<g>
			<polyline class="st30" points="236.6,177.3 259.6,177.3 259.6,92.4 281,92.4 			"/>
			<g>
				<path d="M287.1,92.4c-2.8,1.1-6.4,2.9-8.5,4.8l1.7-4.8l-1.7-4.8C280.7,89.5,284.2,91.3,287.1,92.4z"/>
			</g>
		</g>
	</g>
	<path class="st30" d="M422.2,74.7"/>
	<g>
		<g>
			<line class="st30" x1="230.7" y1="103" x2="253.5" y2="102.6"/>
			<g>
				<path d="M259.5,102.5c-2.8,1.1-6.3,3-8.5,4.9l1.6-4.8l-1.8-4.7C253.1,99.8,256.6,101.5,259.5,102.5z"/>
			</g>
		</g>
	</g>
	
		<image style="overflow:visible;" width="640" height="480" xlink:href="Figures/stepsize2_5.png"  transform="matrix(0.4297 0 0 0.425 295 32)">
	</image>
	<text transform="matrix(1 0 0 1 309.2542 39.8598)" class="st5 st26">B.</text>
	
		<image style="overflow:visible;" width="640" height="480" xlink:href="Figures/foldchange.png"  transform="matrix(0.3742 0 0 0.3742 25 255)">
	</image>
</g>
</svg>
